<mxfile host="app.diagrams.net" modified="2023-08-17T20:29:48.409Z" agent="Mozilla/5.0 (Macintosh; Intel Mac OS X 10_15_7) AppleWebKit/537.36 (KHTML, like Gecko) Chrome/115.0.0.0 Safari/537.36" etag="h2AszO2GYPDFUmhvK-4P" version="21.6.8" type="google">
  <diagram name="Page-1" id="l6XqrRnCrj9WIhRDfguX">
    <mxGraphModel grid="1" page="1" gridSize="10" guides="1" tooltips="1" connect="1" arrows="1" fold="1" pageScale="0.5" pageWidth="827" pageHeight="1169" math="0" shadow="0">
      <root>
        <mxCell id="0" />
        <mxCell id="1" style="" parent="0" />
        <mxCell id="UHRjQbmzQFVXhaWRTfUS-117" style="edgeStyle=orthogonalEdgeStyle;rounded=0;orthogonalLoop=1;jettySize=auto;html=1;exitX=0.5;exitY=1;exitDx=0;exitDy=0;" edge="1" parent="1" source="UHRjQbmzQFVXhaWRTfUS-1">
          <mxGeometry relative="1" as="geometry">
            <mxPoint x="50" y="110" as="targetPoint" />
          </mxGeometry>
        </mxCell>
        <mxCell id="UHRjQbmzQFVXhaWRTfUS-1" value="Input Image (1 * H * W)" style="rounded=0;whiteSpace=wrap;html=1;" vertex="1" parent="1">
          <mxGeometry x="368.45" y="10" width="230" height="60" as="geometry" />
        </mxCell>
        <mxCell id="UHRjQbmzQFVXhaWRTfUS-83" style="edgeStyle=orthogonalEdgeStyle;rounded=0;orthogonalLoop=1;jettySize=auto;html=1;exitX=1;exitY=0.5;exitDx=0;exitDy=0;entryX=-0.001;entryY=0.475;entryDx=0;entryDy=0;entryPerimeter=0;" edge="1" parent="1" source="UHRjQbmzQFVXhaWRTfUS-2" target="UHRjQbmzQFVXhaWRTfUS-74">
          <mxGeometry relative="1" as="geometry" />
        </mxCell>
        <mxCell id="UHRjQbmzQFVXhaWRTfUS-2" value="&lt;font style=&quot;font-size: 14px;&quot;&gt;&lt;hr&gt;&lt;/font&gt;" style="rounded=0;whiteSpace=wrap;html=1;" vertex="1" parent="1">
          <mxGeometry x="90" y="120" width="900" height="400" as="geometry" />
        </mxCell>
        <mxCell id="UHRjQbmzQFVXhaWRTfUS-111" style="edgeStyle=orthogonalEdgeStyle;rounded=0;orthogonalLoop=1;jettySize=auto;html=1;exitX=1;exitY=0.5;exitDx=0;exitDy=0;entryX=0;entryY=0.5;entryDx=0;entryDy=0;" edge="1" parent="1" source="UHRjQbmzQFVXhaWRTfUS-7" target="UHRjQbmzQFVXhaWRTfUS-10">
          <mxGeometry relative="1" as="geometry" />
        </mxCell>
        <mxCell id="UHRjQbmzQFVXhaWRTfUS-7" value="Initial Convolution&lt;br&gt;-Con2d&lt;br&gt;-BatchNormalization&lt;br&gt;-ReLU(inplace=True)&lt;br&gt;-MaxPool2d" style="rounded=0;whiteSpace=wrap;html=1;" vertex="1" parent="1">
          <mxGeometry x="133.75" y="235" width="140" height="150" as="geometry" />
        </mxCell>
        <mxCell id="UHRjQbmzQFVXhaWRTfUS-10" value="Sequential Block&lt;br&gt;&lt;br&gt;-BasicBlock&lt;br&gt;Con2d&lt;br style=&quot;border-color: var(--border-color);&quot;&gt;BatchNormalization&lt;br style=&quot;border-color: var(--border-color);&quot;&gt;ReLU(inplace=True)&lt;br style=&quot;border-color: var(--border-color);&quot;&gt;MaxPool2d&lt;br&gt;&lt;br&gt;-BasicBlock&lt;br&gt;-Con2d&lt;br style=&quot;border-color: var(--border-color);&quot;&gt;-BatchNormalization&lt;br style=&quot;border-color: var(--border-color);&quot;&gt;-ReLU(inplace=True)&lt;br style=&quot;border-color: var(--border-color);&quot;&gt;-MaxPool2d" style="rounded=0;whiteSpace=wrap;html=1;" vertex="1" parent="1">
          <mxGeometry x="315" y="200" width="170" height="205" as="geometry" />
        </mxCell>
        <mxCell id="UHRjQbmzQFVXhaWRTfUS-24" value="Sequential Block&lt;br&gt;&lt;br&gt;-BasicBlock&lt;br&gt;Con2d&lt;br style=&quot;border-color: var(--border-color);&quot;&gt;BatchNormalization&lt;br style=&quot;border-color: var(--border-color);&quot;&gt;ReLU(inplace=True)&lt;br style=&quot;border-color: var(--border-color);&quot;&gt;MaxPool2d&lt;br&gt;&lt;br&gt;-BasicBlock&lt;br&gt;-Con2d&lt;br style=&quot;border-color: var(--border-color);&quot;&gt;-BatchNormalization&lt;br style=&quot;border-color: var(--border-color);&quot;&gt;-ReLU(inplace=True)&lt;br style=&quot;border-color: var(--border-color);&quot;&gt;-MaxPool2d" style="rounded=0;whiteSpace=wrap;html=1;" vertex="1" parent="1">
          <mxGeometry x="348.5" y="237.5" width="170" height="205" as="geometry" />
        </mxCell>
        <mxCell id="UHRjQbmzQFVXhaWRTfUS-25" value="Sequential Block&lt;br&gt;&lt;br&gt;-BasicBlock&lt;br&gt;Con2d&lt;br style=&quot;border-color: var(--border-color);&quot;&gt;BatchNormalization&lt;br style=&quot;border-color: var(--border-color);&quot;&gt;ReLU(inplace=True)&lt;br style=&quot;border-color: var(--border-color);&quot;&gt;MaxPool2d&lt;br&gt;&lt;br&gt;-BasicBlock&lt;br&gt;-Con2d&lt;br style=&quot;border-color: var(--border-color);&quot;&gt;-BatchNormalization&lt;br style=&quot;border-color: var(--border-color);&quot;&gt;-ReLU(inplace=True)&lt;br style=&quot;border-color: var(--border-color);&quot;&gt;-MaxPool2d" style="rounded=0;whiteSpace=wrap;html=1;" vertex="1" parent="1">
          <mxGeometry x="378.5" y="267.5" width="170" height="205" as="geometry" />
        </mxCell>
        <mxCell id="h1DDuNAEDvPaWvPN2RQF-3" style="edgeStyle=orthogonalEdgeStyle;rounded=0;orthogonalLoop=1;jettySize=auto;html=1;exitX=1;exitY=0.5;exitDx=0;exitDy=0;" edge="1" parent="1" source="UHRjQbmzQFVXhaWRTfUS-26">
          <mxGeometry relative="1" as="geometry">
            <mxPoint x="720" y="320" as="targetPoint" />
          </mxGeometry>
        </mxCell>
        <mxCell id="UHRjQbmzQFVXhaWRTfUS-26" value="Sequential Block&lt;br&gt;&lt;br&gt;-BasicBlock&lt;br&gt;Con2d&lt;br style=&quot;border-color: var(--border-color);&quot;&gt;BatchNormalization&lt;br style=&quot;border-color: var(--border-color);&quot;&gt;ReLU(inplace=True)&lt;br style=&quot;border-color: var(--border-color);&quot;&gt;MaxPool2d&lt;br&gt;&lt;br&gt;-BasicBlock&lt;br&gt;-Con2d&lt;br style=&quot;border-color: var(--border-color);&quot;&gt;-BatchNormalization&lt;br style=&quot;border-color: var(--border-color);&quot;&gt;-ReLU(inplace=True)&lt;br style=&quot;border-color: var(--border-color);&quot;&gt;-MaxPool2d" style="rounded=0;whiteSpace=wrap;html=1;" vertex="1" parent="1">
          <mxGeometry x="414.5" y="297.5" width="170" height="205" as="geometry" />
        </mxCell>
        <mxCell id="UHRjQbmzQFVXhaWRTfUS-120" style="edgeStyle=orthogonalEdgeStyle;rounded=0;orthogonalLoop=1;jettySize=auto;html=1;exitX=1;exitY=0.5;exitDx=0;exitDy=0;" edge="1" parent="1" source="UHRjQbmzQFVXhaWRTfUS-74">
          <mxGeometry relative="1" as="geometry">
            <mxPoint x="50" y="970" as="targetPoint" />
          </mxGeometry>
        </mxCell>
        <mxCell id="UHRjQbmzQFVXhaWRTfUS-74" value="&lt;font style=&quot;font-size: 18px;&quot;&gt;AdapativeGraphConstructor&lt;br&gt;&lt;br&gt;&lt;br&gt;&lt;br&gt;&lt;br&gt;&lt;br&gt;&lt;br&gt;&lt;br&gt;&lt;br&gt;&lt;/font&gt;" style="rounded=0;whiteSpace=wrap;html=1;" vertex="1" parent="1">
          <mxGeometry x="109.99999999999999" y="600" width="763" height="310" as="geometry" />
        </mxCell>
        <mxCell id="UHRjQbmzQFVXhaWRTfUS-78" style="edgeStyle=orthogonalEdgeStyle;rounded=0;orthogonalLoop=1;jettySize=auto;html=1;exitX=1;exitY=0.25;exitDx=0;exitDy=0;entryX=0;entryY=0.25;entryDx=0;entryDy=0;" edge="1" parent="1" source="UHRjQbmzQFVXhaWRTfUS-75" target="UHRjQbmzQFVXhaWRTfUS-76">
          <mxGeometry relative="1" as="geometry" />
        </mxCell>
        <mxCell id="UHRjQbmzQFVXhaWRTfUS-75" value="&lt;font size=&quot;3&quot;&gt;ConstructGraph&lt;br&gt;-&lt;/font&gt;K-Neighbors / Distance Threshold&lt;font size=&quot;3&quot;&gt;&lt;br&gt;&amp;nbsp;&lt;br&gt;&lt;/font&gt;" style="rounded=0;whiteSpace=wrap;html=1;" vertex="1" parent="1">
          <mxGeometry x="158.45" y="710" width="210" height="130" as="geometry" />
        </mxCell>
        <mxCell id="UHRjQbmzQFVXhaWRTfUS-79" style="edgeStyle=orthogonalEdgeStyle;rounded=0;orthogonalLoop=1;jettySize=auto;html=1;exitX=0;exitY=0.75;exitDx=0;exitDy=0;entryX=1;entryY=0.75;entryDx=0;entryDy=0;" edge="1" parent="1" source="UHRjQbmzQFVXhaWRTfUS-76" target="UHRjQbmzQFVXhaWRTfUS-75">
          <mxGeometry relative="1" as="geometry" />
        </mxCell>
        <mxCell id="UHRjQbmzQFVXhaWRTfUS-76" value="Adjacency Matrix Creation" style="rounded=0;whiteSpace=wrap;html=1;" vertex="1" parent="1">
          <mxGeometry x="588.45" y="710" width="240" height="130" as="geometry" />
        </mxCell>
        <mxCell id="8CY3cGoImlpSN5AA5S7m-20" style="edgeStyle=orthogonalEdgeStyle;rounded=0;orthogonalLoop=1;jettySize=auto;html=1;exitX=0.5;exitY=1;exitDx=0;exitDy=0;entryX=0.5;entryY=0;entryDx=0;entryDy=0;" edge="1" parent="1" source="UHRjQbmzQFVXhaWRTfUS-102" target="UHRjQbmzQFVXhaWRTfUS-108">
          <mxGeometry relative="1" as="geometry" />
        </mxCell>
        <mxCell id="UHRjQbmzQFVXhaWRTfUS-102" value="&lt;font style=&quot;font-size: 14px;&quot;&gt;Decoder&lt;br&gt;-ConvTranspose2D&lt;br&gt;-BatchNormalisation&lt;br&gt;-ReLU&lt;br&gt;-Transposed convolution&lt;br&gt;&lt;/font&gt;" style="rounded=0;whiteSpace=wrap;html=1;" vertex="1" parent="1">
          <mxGeometry x="218.45999999999998" y="1430" width="529.98" height="220" as="geometry" />
        </mxCell>
        <mxCell id="UHRjQbmzQFVXhaWRTfUS-108" value="&lt;font style=&quot;font-size: 14px;&quot;&gt;Output (1 * 64&amp;nbsp; * 64 )&lt;/font&gt;" style="rounded=0;whiteSpace=wrap;html=1;" vertex="1" parent="1">
          <mxGeometry x="273.45" y="1720" width="420" height="60" as="geometry" />
        </mxCell>
        <mxCell id="UHRjQbmzQFVXhaWRTfUS-112" value="&lt;font style=&quot;font-size: 14px;&quot;&gt;&amp;nbsp; &amp;nbsp; &amp;nbsp; &amp;nbsp; &amp;nbsp; &amp;nbsp; &amp;nbsp; &amp;nbsp; &amp;nbsp; &amp;nbsp; ResNet18 : Initial layer adapted for single-channel (grayscale) images&lt;br&gt;&lt;/font&gt;" style="text;html=1;strokeColor=none;fillColor=none;align=center;verticalAlign=middle;whiteSpace=wrap;rounded=0;" vertex="1" parent="1">
          <mxGeometry x="207" y="140" width="530" height="30" as="geometry" />
        </mxCell>
        <mxCell id="UHRjQbmzQFVXhaWRTfUS-118" value="" style="endArrow=classic;html=1;rounded=0;entryX=0;entryY=0.5;entryDx=0;entryDy=0;" edge="1" parent="1" target="UHRjQbmzQFVXhaWRTfUS-2">
          <mxGeometry width="50" height="50" relative="1" as="geometry">
            <mxPoint x="50" y="110" as="sourcePoint" />
            <mxPoint x="60" y="270" as="targetPoint" />
            <Array as="points">
              <mxPoint x="50" y="320" />
            </Array>
          </mxGeometry>
        </mxCell>
        <mxCell id="8CY3cGoImlpSN5AA5S7m-3" value="&lt;b&gt;add_Conv1&lt;/b&gt;&lt;br&gt;-Con2d&lt;br&gt;-BatchNormalization&lt;br&gt;-ReLU(inplace=True)" style="rounded=0;whiteSpace=wrap;html=1;" vertex="1" parent="1">
          <mxGeometry x="720" y="250" width="140" height="150" as="geometry" />
        </mxCell>
        <mxCell id="8CY3cGoImlpSN5AA5S7m-4" value="&lt;b&gt;add_Conv2&lt;/b&gt;&lt;br&gt;-Con2d&lt;br&gt;-BatchNormalization&lt;br&gt;-ReLU(inplace=True)" style="rounded=0;whiteSpace=wrap;html=1;" vertex="1" parent="1">
          <mxGeometry x="790" y="314.5" width="140" height="150" as="geometry" />
        </mxCell>
        <mxCell id="8CY3cGoImlpSN5AA5S7m-6" value="" style="endArrow=classic;html=1;rounded=0;exitX=1;exitY=0.5;exitDx=0;exitDy=0;entryX=1;entryY=0.5;entryDx=0;entryDy=0;" edge="1" parent="1" source="8CY3cGoImlpSN5AA5S7m-4" target="UHRjQbmzQFVXhaWRTfUS-2">
          <mxGeometry width="50" height="50" relative="1" as="geometry">
            <mxPoint x="740" y="460" as="sourcePoint" />
            <mxPoint x="790" y="410" as="targetPoint" />
            <Array as="points">
              <mxPoint x="950" y="390" />
              <mxPoint x="950" y="320" />
            </Array>
          </mxGeometry>
        </mxCell>
        <mxCell id="8CY3cGoImlpSN5AA5S7m-17" style="edgeStyle=orthogonalEdgeStyle;rounded=0;orthogonalLoop=1;jettySize=auto;html=1;exitX=1;exitY=0.5;exitDx=0;exitDy=0;entryX=0;entryY=0.5;entryDx=0;entryDy=0;" edge="1" parent="1" source="8CY3cGoImlpSN5AA5S7m-7" target="8CY3cGoImlpSN5AA5S7m-11">
          <mxGeometry relative="1" as="geometry" />
        </mxCell>
        <mxCell id="8CY3cGoImlpSN5AA5S7m-7" value="" style="whiteSpace=wrap;html=1;aspect=fixed;" vertex="1" parent="1">
          <mxGeometry x="118.82" y="980" width="379" height="379" as="geometry" />
        </mxCell>
        <mxCell id="8CY3cGoImlpSN5AA5S7m-8" value="&lt;font style=&quot;font-size: 14px;&quot;&gt;GCN Block&lt;/font&gt;" style="text;html=1;strokeColor=none;fillColor=none;align=center;verticalAlign=middle;whiteSpace=wrap;rounded=0;" vertex="1" parent="1">
          <mxGeometry x="197.27000000000004" y="987.5" width="210" height="30" as="geometry" />
        </mxCell>
        <mxCell id="8CY3cGoImlpSN5AA5S7m-9" value="&lt;font style=&quot;font-size: 14px;&quot;&gt;GCN Layer&lt;br style=&quot;border-color: var(--border-color);&quot;&gt;&lt;br style=&quot;border-color: var(--border-color);&quot;&gt;-Linear convolution&lt;br style=&quot;border-color: var(--border-color);&quot;&gt;-Attention mechanism&lt;br style=&quot;border-color: var(--border-color);&quot;&gt;-Batch normalization &amp;amp; layer normalization&lt;/font&gt;" style="whiteSpace=wrap;html=1;aspect=fixed;" vertex="1" parent="1">
          <mxGeometry x="152.82" y="1027.5" width="210" height="210" as="geometry" />
        </mxCell>
        <mxCell id="8CY3cGoImlpSN5AA5S7m-10" value="&lt;font style=&quot;font-size: 14px;&quot;&gt;GCN Layer&lt;br style=&quot;border-color: var(--border-color);&quot;&gt;&lt;br style=&quot;border-color: var(--border-color);&quot;&gt;-Linear convolution&lt;br style=&quot;border-color: var(--border-color);&quot;&gt;-Attention mechanism&lt;br style=&quot;border-color: var(--border-color);&quot;&gt;-Batch normalization &amp;amp; layer normalization&lt;/font&gt;" style="whiteSpace=wrap;html=1;aspect=fixed;" vertex="1" parent="1">
          <mxGeometry x="260.27000000000004" y="1107.5" width="210" height="210" as="geometry" />
        </mxCell>
        <mxCell id="8CY3cGoImlpSN5AA5S7m-19" style="edgeStyle=orthogonalEdgeStyle;rounded=0;orthogonalLoop=1;jettySize=auto;html=1;exitX=1;exitY=0.5;exitDx=0;exitDy=0;entryX=0.5;entryY=0;entryDx=0;entryDy=0;" edge="1" parent="1" source="8CY3cGoImlpSN5AA5S7m-11" target="UHRjQbmzQFVXhaWRTfUS-102">
          <mxGeometry relative="1" as="geometry" />
        </mxCell>
        <mxCell id="8CY3cGoImlpSN5AA5S7m-11" value="" style="whiteSpace=wrap;html=1;aspect=fixed;" vertex="1" parent="1">
          <mxGeometry x="539.07" y="980" width="380" height="380" as="geometry" />
        </mxCell>
        <mxCell id="8CY3cGoImlpSN5AA5S7m-12" value="&lt;font style=&quot;font-size: 14px;&quot;&gt;GCN Block&lt;/font&gt;" style="text;html=1;strokeColor=none;fillColor=none;align=center;verticalAlign=middle;whiteSpace=wrap;rounded=0;" vertex="1" parent="1">
          <mxGeometry x="617.5200000000001" y="987.5" width="210" height="30" as="geometry" />
        </mxCell>
        <mxCell id="8CY3cGoImlpSN5AA5S7m-13" value="&lt;font style=&quot;font-size: 14px;&quot;&gt;GCN Layer&lt;br style=&quot;border-color: var(--border-color);&quot;&gt;&lt;br style=&quot;border-color: var(--border-color);&quot;&gt;-Linear convolution&lt;br style=&quot;border-color: var(--border-color);&quot;&gt;-Attention mechanism&lt;br style=&quot;border-color: var(--border-color);&quot;&gt;-Batch normalization &amp;amp; layer normalization&lt;/font&gt;" style="whiteSpace=wrap;html=1;aspect=fixed;" vertex="1" parent="1">
          <mxGeometry x="573.07" y="1027.5" width="210" height="210" as="geometry" />
        </mxCell>
        <mxCell id="8CY3cGoImlpSN5AA5S7m-14" value="&lt;font style=&quot;font-size: 14px;&quot;&gt;GCN Layer&lt;br style=&quot;border-color: var(--border-color);&quot;&gt;&lt;br style=&quot;border-color: var(--border-color);&quot;&gt;-Linear convolution&lt;br style=&quot;border-color: var(--border-color);&quot;&gt;-Attention mechanism&lt;br style=&quot;border-color: var(--border-color);&quot;&gt;-Batch normalization &amp;amp; layer normalization&lt;/font&gt;" style="whiteSpace=wrap;html=1;aspect=fixed;" vertex="1" parent="1">
          <mxGeometry x="680.5200000000001" y="1107.5" width="210" height="210" as="geometry" />
        </mxCell>
        <mxCell id="8CY3cGoImlpSN5AA5S7m-21" value="" style="endArrow=classic;html=1;rounded=0;entryX=0;entryY=0.5;entryDx=0;entryDy=0;" edge="1" parent="1" target="8CY3cGoImlpSN5AA5S7m-7">
          <mxGeometry width="50" height="50" relative="1" as="geometry">
            <mxPoint x="50" y="970" as="sourcePoint" />
            <mxPoint x="80" y="1150" as="targetPoint" />
            <Array as="points">
              <mxPoint x="50" y="1170" />
            </Array>
          </mxGeometry>
        </mxCell>
      </root>
    </mxGraphModel>
  </diagram>
</mxfile>
